<svg viewBox="0 0 512 512" xmlns="http://www.w3.org/2000/svg">
  <defs>
    <linearGradient id="grad1" x1="0%" y1="0%" x2="100%" y2="100%">
      <stop offset="0%" style="stop-color:#FF6B6B;stop-opacity:1" />
      <stop offset="100%" style="stop-color:#FF8E8E;stop-opacity:1" />
    </linearGradient>
  </defs>

  <!-- Top horizontal beam -->
  <path d="M 60 50 L 260 150 L 260 220 L 60 120 Z" fill="#FF6B6B"/>
  <path d="M 260 150 L 452 50 L 452 120 L 260 220 Z" fill="url(#grad1)"/>

  <!-- Middle horizontal beam -->
  <path d="M 215 200 L 415 300 L 415 370 L 215 270 Z" fill="#FF6B6B"/>
  <path d="M 415 300 L 390 315 L 390 385 L 415 370 Z" fill="url(#grad1)"/>

  <!-- Bottom horizontal beam -->
  <path d="M 60 350 L 260 450 L 260 520 L 60 420 Z" fill="#FF6B6B"/>
  <path d="M 260 450 L 485 325 L 485 395 L 260 520 Z" fill="url(#grad1)"/>

  <!-- Left vertical connection -->
  <path d="M 60 120 L 60 350 L 130 315 L 130 155 Z" fill="#FFA3A3"/>

  <!-- Right vertical connection -->
  <path d="M 390 150 L 390 315 L 452 285 L 452 120 Z" fill="#FFA3A3"/>

  <!-- Bottom right vertical -->
  <path d="M 390 385 L 390 460 L 485 395 L 485 325 Z" fill="#FFA3A3"/>
</svg>
